<?xml version="1.0" encoding="UTF-8"?>
<svg id="Layer_1" data-name="Layer 1" xmlns="http://www.w3.org/2000/svg" viewBox="0 0 960 960">
  <defs>
    <style>
      .cls-1 {
        fill: #003764;
      }

      .cls-1, .cls-2 {
        stroke-width: 0px;
      }

      .cls-2 {
        fill: #0096d6;
      }
    </style>
  </defs>
  <path id="path4" class="cls-1" d="M383.71,344.08v4.93h21.14v55.7h5.78v-55.7h21.14v-4.93h-48.06Z"/>
  <path id="path6" class="cls-1" d="M479.24,344.08v26.32h-36v-26.32h-5.77v60.63h5.77v-29.38h36v29.38h5.77v-60.63h-5.77Z"/>
  <path id="path8" class="cls-1" d="M497.25,344.08v60.63h42.28v-4.93h-36.51v-23.94h33.79v-4.93h-33.79v-21.91h36.08v-4.93h-41.85Z"/>
  <path id="path10" class="cls-1" d="M383.71,555.14v60.62h5.78v-28.87h29.04v-4.93h-29.04v-21.9h32.69v-4.93h-38.46Z"/>
  <path id="path12" class="cls-1" d="M454.7,612.11c15.96,0,22.75-13.42,22.75-26.66s-6.79-26.66-22.75-26.66-22.84,13.42-22.84,26.66,6.79,26.66,22.84,26.66M454.7,553.87c19.02,0,28.53,14.94,28.53,31.58s-9.51,31.59-28.53,31.59-28.61-14.94-28.61-31.59,9.51-31.58,28.61-31.58"/>
  <path id="path14" class="cls-1" d="M491.64,555.14h5.78v37.53c0,14.01,6.53,19.45,17.74,19.45s17.83-5.44,17.83-19.45v-37.53h5.78v38.8c0,12.48-6.71,23.1-23.6,23.1s-23.52-10.62-23.52-23.1v-38.8Z"/>
  <path id="path16" class="cls-1" d="M550.32,555.14h6.45l35.32,51.28h.17v-51.28h5.77v60.62h-6.45l-35.32-51.28h-.17v51.28h-5.78v-60.62Z"/>
  <path id="path18" class="cls-1" d="M615.96,610.84h12.31c17.4,0,24.96-7.22,24.96-25.39s-7.56-25.38-24.96-25.38h-12.31v50.77ZM610.18,555.14h20.97c18.34.42,27.85,10.28,27.85,30.31s-9.51,29.89-27.85,30.31h-20.97v-60.62Z"/>
  <path id="path20" class="cls-1" d="M676.93,591.99h23.86l-11.72-31.07-12.14,31.07ZM686.1,555.14h6.45l23.77,60.62h-6.19l-7.39-18.84h-27.6l-7.3,18.84h-6.2l24.45-60.62Z"/>
  <g id="use22">
    <path id="path4-2" data-name="path4" class="cls-1" d="M709.54,555.14v4.93h21.14v55.7h5.78v-55.7h21.14v-4.93h-48.06Z"/>
  </g>
  <path id="path24" class="cls-1" d="M763.72,555.14h5.78v60.62h-5.78v-60.62Z"/>
  <g id="use26">
    <path id="path12-2" data-name="path12" class="cls-1" d="M807.53,612.11c15.96,0,22.75-13.42,22.75-26.66s-6.79-26.66-22.75-26.66-22.84,13.42-22.84,26.66,6.79,26.66,22.84,26.66M807.53,553.87c19.02,0,28.53,14.94,28.53,31.58s-9.51,31.59-28.53,31.59-28.61-14.94-28.61-31.59,9.51-31.58,28.61-31.58"/>
  </g>
  <g id="use28">
    <path id="path16-2" data-name="path16" class="cls-1" d="M844.98,555.14h6.45l35.32,51.28h.17v-51.28h5.77v60.62h-6.45l-35.32-51.28h-.17v51.28h-5.78v-60.62Z"/>
  </g>
  <path id="path30" class="cls-1" d="M383.71,422.75h33.42v80.67h48v27.8h-81.42v-108.47Z"/>
  <path id="path32" class="cls-1" d="M487,422.76h33.42v108.47h-33.42v-108.47Z"/>
  <path id="path34" class="cls-1" d="M545.33,422.75h34.18l31.6,58.03h.31v-58.03h31.6v108.47h-32.51l-33.27-59.25h-.3v59.25h-31.6v-108.47Z"/>
  <path id="path36" class="cls-1" d="M766.5,489.29c0,30.23-15.95,44.51-49.37,44.51s-49.52-14.28-49.52-44.51v-66.54h33.43v59.09c0,10.94-.16,24.91,16.25,24.91s15.8-13.97,15.8-24.91v-59.09h33.42v66.54Z"/>
  <path id="path38" class="cls-1" d="M819.66,473.49l-35.7-50.74h39.2l16.41,29.47,16.1-29.47h37.07l-34.78,51.04,38.74,57.42h-40.26l-18.53-32.36-19.14,32.36h-38.28l39.2-57.73Z"/>
  <path id="path40" class="cls-2" d="M118.35,561.23v-109.05h-54.63v163.58h163.65v-54.53h-109.02Z"/>
  <path id="path42" class="cls-1" d="M336.38,343.05H63.76v81.81h54.51v-27.04h163.6v163.41h-27.23v54.53h81.74v-272.72Z"/>
</svg>